PathFileType	4	(X/Y/Z)	./resultDataOpenSim/trcMotMarkerGrf/sub10/qtm-03-03.trc
DataRate	CameraRate	NumFrames	NumMarkers	Units	OrigDataRate	OrigDataStartFrame	OrigNumFrames
250.000000	250.000000	7	24	m	250.000000	463	528
Frame#	Time	L.Toe.Tip			R.Toe.Tip			L.Ankle.Lat			R.Ankle.Lat			L.Ankle.Med			R.Ankle.Med			L.Heel			R.Heel			L.Knee.Lat			R.Knee.Lat			L.Knee.Med			R.Knee.Med			L.Thigh.Upper			R.Thigh.Upper			L.ASIS			R.ASIS			V.Sacral			L.Acromium			R.Acromium			C7			L.Elbow			R.Elbow			L.Wrist.Lat			R.Wrist.Lat
		X1	Y1	Z1	X2	Y2	Z2	X3	Y3	Z3	X4	Y4	Z4	X5	Y5	Z5	X6	Y6	Z6	X7	Y7	Z7	X8	Y8	Z8	X9	Y9	Z9	X10	Y10	Z10	X11	Y11	Z11	X12	Y12	Z12	X13	Y13	Z13	X14	Y14	Z14	X15	Y15	Z15	X16	Y16	Z16	X17	Y17	Z17	X18	Y18	Z18	X19	Y19	Z19	X20	Y20	Z20	X21	Y21	Z21	X22	Y22	Z22	X23	Y23	Z23	X24	Y24	Z24

463	1.848	1.7045967	0.065035379	-0.17242564	0.91569363	0.039707189	0.087826168	1.5695691	0.067409945	-0.19727229	0.79352258	0.10531593	0.12334615	1.577846	0.08840965	-0.11414627	0.81929574	0.11499811	0.036259727	1.5109861	0.028939834	-0.15281651	0.73547164	0.098178056	0.079092201	1.4755276	0.44835815	-0.19428939	1.0393929	0.42457484	0.12479051	1.488247	0.4156217	-0.077816567	1.0641957	0.41244537	-0.00090319102	1.3127502	0.79174089	-0.22134529	1.1625819	0.81461448	0.14394692	1.3384525	0.89591615	-0.1315303	1.26452	0.89308414	0.10856221	1.1116968	0.90110865	-0.087426436	1.2302584	1.3658264	-0.19429872	1.1698789	1.3660289	0.12372972	1.1149708	1.3822082	-0.055420443	1.0990263	1.0581901	-0.26118799	1.163033	1.0081267	0.21598007	1.1477209	0.83746398	-0.34684807	1.4086445	0.95428064	0.24769979
464	1.852	1.7063247	0.062002278	-0.17183737	0.91629357	0.039768657	0.087675458	1.5712421	0.067093502	-0.19745313	0.79561809	0.10810973	0.12345788	1.5796305	0.088182102	-0.11436622	0.82158328	0.11731439	0.03644063	1.51183	0.029803472	-0.15302117	0.73766654	0.10195896	0.079201491	1.4824174	0.44943436	-0.19531457	1.044766	0.42478894	0.12403669	1.4952718	0.41718241	-0.078561961	1.0692633	0.41255241	-0.0016912081	1.3197311	0.7925263	-0.22296856	1.1704699	0.81344175	0.1430977	1.3446375	0.89595693	-0.13284553	1.2716922	0.89243042	0.10729842	1.1178706	0.90152574	-0.088739457	1.2358083	1.3657846	-0.1959608	1.1763736	1.3661961	0.12226475	1.1209568	1.3821287	-0.056890369	1.1053939	1.0576871	-0.2623722	1.1686874	1.0081726	0.21327844	1.1546205	0.83708602	-0.34827531	1.4133882	0.95303262	0.24621783
465	1.856	1.7078441	0.058946682	-0.17107171	0.91693151	0.03980788	0.087547506	1.5727859	0.066801249	-0.19757097	0.7978049	0.11090281	0.12350051	1.5812818	0.088028695	-0.11453487	0.82411539	0.1196661	0.036533162	1.5125915	0.030599777	-0.15322866	0.74006727	0.10580505	0.079199229	1.4893467	0.4505936	-0.19630871	1.0502627	0.42500468	0.12327888	1.5027138	0.41886743	-0.07914996	1.0745077	0.41270364	-0.0024125122	1.3265995	0.79347615	-0.22461507	1.1781068	0.81247456	0.14213558	1.3508508	0.89610625	-0.13417705	1.2788817	0.89182158	0.1059573	1.1242291	0.90186844	-0.089740401	1.2413709	1.3657907	-0.19761094	1.1829526	1.3664205	0.12079783	1.1270085	1.3821224	-0.058290774	1.1118008	1.0572107	-0.26355995	1.1746421	1.008335	0.21058864	1.1616702	0.83675505	-0.3496646	1.418214	0.95177141	0.24458886
466	1.86	1.7092049	0.056001219	-0.17013144	0.91761039	0.039829044	0.087430524	1.5742436	0.066522874	-0.19762628	0.80018	0.1137168	0.12348277	1.5828531	0.087939057	-0.11463237	0.82687941	0.12204775	0.036574153	1.5133098	0.031338298	-0.15345509	0.7426631	0.10972067	0.079116969	1.4962652	0.45178579	-0.19727527	1.0559408	0.42522412	0.12251537	1.5101461	0.42060818	-0.079671405	1.0799402	0.41287404	-0.0030892297	1.3333208	0.7945768	-0.22628116	1.1856443	0.81161	0.14112973	1.3571082	0.89636516	-0.13551345	1.2860852	0.89125028	0.10453685	1.1307558	0.90216382	-0.090556588	1.2469397	1.3658384	-0.19925212	1.1895703	1.3667112	0.11932942	1.1331101	1.3821727	-0.0596403	1.1182453	1.0567507	-0.26474336	1.1810296	1.0086561	0.20773132	1.1688532	0.83646203	-0.35101789	1.4230307	0.95047991	0.24285387
467	1.864	1.7105046	0.053366969	-0.16905871	0.91833885	0.039842307	0.087303413	1.5756424	0.066284675	-0.19760648	0.80295143	0.11654207	0.12332015	1.5843646	0.087890742	-0.11464081	0.82984709	0.12443307	0.036591669	1.5140212	0.032019414	-0.15369066	0.74545734	0.11370131	0.078950998	1.5031241	0.45296855	-0.19820767	1.0619095	0.42542836	0.1217486	1.5171749	0.42237035	-0.080194707	1.0855601	0.41302912	-0.0037834999	1.339875	0.79581344	-0.22796185	1.1932727	0.81074927	0.14014096	1.3634156	0.89673939	-0.13684786	1.2932902	0.89071792	0.1030475	1.1373872	0.90246686	-0.091297462	1.2525012	1.3659167	-0.20088285	1.1962133	1.3670605	0.11785605	1.1392409	1.3822594	-0.060959891	1.1247259	1.0563012	-0.26591109	1.1876248	1.0091534	0.20453574	1.1761532	0.83619538	-0.35234538	1.4277671	0.94915897	0.24109059
468	1.868	1.7118415	0.051192226	-0.16801489	0.91911399	0.0398466	0.0871499	1.5769724	0.066134224	-0.19749392	0.80618471	0.11938117	0.12297501	1.5858159	0.087863208	-0.11455347	0.83300658	0.12678737	0.03659118	1.5147318	0.032642639	-0.15390888	0.74846374	0.11773445	0.078680474	1.5098725	0.45410537	-0.19909164	1.0682995	0.42557224	0.12098705	1.5238389	0.42415918	-0.080729347	1.0913637	0.41313076	-0.0045792524	1.3462485	0.79716657	-0.22964848	1.2011499	0.80985328	0.13917688	1.3697737	0.89724036	-0.1381769	1.3004786	0.89023287	0.10150238	1.1440654	0.90281863	-0.091993421	1.258046	1.3660124	-0.20249769	1.2028733	1.3674578	0.1163778	1.1453844	1.3823674	-0.062254567	1.1312335	1.0558589	-0.26705483	1.1938015	1.0097918	0.20102281	1.183566	0.83594499	-0.35365451	1.4324148	0.94781386	0.23934526
469	1.872	1.7132416	0.04949437	-0.16726897	0.91990274	0.039822899	0.086955682	1.5781875	0.066111273	-0.19729193	0.80970482	0.12227273	0.12254179	1.5872001	0.087843128	-0.11438235	0.83637883	0.1290995	0.03656431	1.5154131	0.033231713	-0.15411232	0.75169841	0.12180232	0.078289035	1.5164619	0.45516269	-0.1999181	1.0751257	0.42563245	0.12023766	1.5304926	0.4259516	-0.081260561	1.0973635	0.41314775	-0.0055018337	1.3524369	0.79860451	-0.23133387	1.2093127	0.80893428	0.13822271	1.3761793	0.89787652	-0.13950251	1.3076452	0.88979932	0.099903876	1.1507584	0.90323745	-0.092639516	1.2635775	1.3661182	-0.2040966	1.2095486	1.3678886	0.11489499	1.1515296	1.3824918	-0.063518876	1.1377442	1.0554208	-0.26817038	1.1990735	1.0104654	0.19738174	1.1910942	0.83570681	-0.35494633	1.437	0.94643979	0.2376085
